<svg width="48" height="48" viewBox="0 0 48 48" fill="none" xmlns="http://www.w3.org/2000/svg">
<g clip-path="url(#clip0_2:666)">
<path fill-rule="evenodd" clip-rule="evenodd" d="M5.47719 15C3.64527 15 2.24111 16.6275 2.50958 18.4396L4.95669 34.9577C4.34465 36.1731 4 37.5463 4 39C4 43.9706 8.02944 48 13 48C16.9187 48 20.2524 45.4956 21.4879 42H30.5121C31.7476 45.4956 35.0813 48 39 48C43.9706 48 48 43.9706 48 39C48 36.1359 46.6621 33.5842 44.5772 31.9359L42.3439 22.6595C41.2623 18.1666 37.243 15 32.6217 15H19H5.47719Z" fill="#FFE145"/>
<path d="M47.5 39.7515C47.5 37.2975 46.1658 35.073 44.0605 33.885C44.3455 33.0075 44.5 32.0835 44.5 31.1348C44.5 27.4552 42.1847 24.114 38.7385 22.8218L38.5 22.7318V21.3345C38.9432 21.5925 39.451 21.7515 40 21.7515H46V15.7515H40C39.451 15.7515 38.9432 15.9105 38.5 16.1685V15.7515C38.5 14.5508 37.9172 13.4288 36.9595 12.7275C36.7653 11.4705 35.6852 10.5015 34.375 10.5015L25.2033 10.5007C26.2765 9.5565 27.0093 8.23875 27.196 6.75H29.4978C30.7383 6.75 31.7478 5.7405 31.7478 4.5C31.7478 3.2595 30.7383 2.25 29.4978 2.25H25.9172C24.7825 0.8385 23.071 0 21.2477 0C17.9395 0 15.2477 2.69175 15.2477 6C15.2477 8.2245 16.4672 10.1655 18.2703 11.202C16.7035 11.9767 15.4817 13.3388 14.8915 15.0015H3.25C2.0095 15.0015 1 16.011 1 17.2515V26.2515C1 27.492 2.0095 28.5015 3.25 28.5015H5.58325C4.6075 29.4555 4 30.783 4 32.2515V33.771C3.09475 34.4557 2.5 35.5312 2.5 36.7515C2.5 38.8192 4.18225 40.5015 6.25 40.5015H7.82575C8.1745 42.2108 9.68875 43.5015 11.5 43.5015C13.3112 43.5015 14.8255 42.2108 15.1742 40.5015H35.5758C35.9245 42.2108 37.4388 43.5015 39.25 43.5015C41.0612 43.5015 42.5755 42.2108 42.9242 40.5015H47.5V39.7515ZM43 31.1348C43 33.1058 42.2327 34.959 40.8385 36.3525L38.1895 39.0015H35.5V15.4883C35.956 15.27 36.337 14.9273 36.601 14.5005C36.8485 14.8673 37 15.2963 37 15.7515V23.7713L38.212 24.2257C41.0763 25.2997 43 28.0763 43 31.1348ZM32.4123 36.2955L30.28 27.2325C29.725 24.8707 27.82 23.0865 25.4253 22.6875L25 22.6163L24.9985 15.7515H34V39.0015H31.972C32.3125 38.4757 32.4993 37.8652 32.4985 37.224V37.044C32.4985 36.795 32.4692 36.5437 32.4123 36.2955ZM44.5 20.2515H43V17.2515H44.5V20.2515ZM40 17.2515H41.5V20.2515H40C39.1727 20.2515 38.5 19.5788 38.5 18.7515C38.5 17.9242 39.1727 17.2515 40 17.2515ZM30.2485 4.5C30.2485 4.91325 29.9125 5.25 29.4985 5.25H23.212L23.3403 4.99425C23.7243 4.227 24.4953 3.75 25.3533 3.75H29.4985C29.9125 3.75 30.2485 4.08675 30.2485 4.5ZM21.2485 1.5C22.2797 1.5 23.263 1.86075 24.0513 2.48925C23.1737 2.8125 22.4342 3.45075 21.9985 4.323L21.535 5.25H16.816C17.1752 3.12525 19.0232 1.5 21.2485 1.5ZM16.816 6.75H25.6803C25.3218 8.87475 23.4737 10.5 21.2477 10.5C19.0217 10.5 17.1752 8.87475 16.816 6.75ZM15.9985 17.2515C15.9985 14.3558 18.3542 12 21.25 12L34.375 12.0015C34.9953 12.0015 35.5 12.5063 35.5 13.1265C35.5 13.7468 34.9953 14.2515 34.375 14.2515H20.5V15.7515H23.4985L23.5 23.8868L25.1792 24.1672C26.9747 24.4657 28.4035 25.8045 28.8197 27.5752L30.9513 36.636C30.9828 36.7718 30.9985 36.9082 30.9985 37.044V37.2248C30.9985 37.6995 30.814 38.1457 30.4788 38.481C30.1427 38.817 29.6973 39.0015 29.2225 39.0015C28.4058 39.0015 27.6978 38.448 27.499 37.656L25.546 29.8417C25.1275 28.1692 23.632 27.0015 21.9078 27.0015L19.7477 27.0007C17.68 27.0007 15.9985 25.3185 15.9985 23.2508V17.2515ZM26.4707 39.0015H23.5V32.2515C23.5 30.7837 22.8925 29.4562 21.9183 28.5022C22.948 28.5067 23.8412 29.2057 24.0917 30.2048L26.0448 38.019C26.1333 38.376 26.2802 38.706 26.4707 39.0015ZM3.25 27.0015C2.836 27.0015 2.5 26.6655 2.5 26.2515V17.2515C2.5 16.8383 2.836 16.5015 3.25 16.5015H14.5427C14.515 16.7483 14.4985 16.998 14.4985 17.2515V23.2508C14.4985 24.7193 15.1067 26.0475 16.0817 27.0015H15.25H9.25H3.25ZM11.5 42.0015C10.5235 42.0015 9.6985 41.3722 9.388 40.5015H13.6112C13.3015 41.3722 12.4765 42.0015 11.5 42.0015ZM19 39.0015H6.25C5.0095 39.0015 4 37.992 4 36.7515C4 35.511 5.0095 34.5015 6.25 34.5015H16.75C17.9905 34.5015 19 35.511 19 36.7515V39.0015ZM16.75 33.0015H6.25C5.9935 33.0015 5.74225 33.0278 5.5 33.0773V32.2515C5.5 30.1838 7.18225 28.5015 9.25 28.5015H15.25H18.25C20.3177 28.5015 22 30.1838 22 32.2515V39.0015H20.5V36.7515C20.5 34.6838 18.8177 33.0015 16.75 33.0015ZM39.25 42.0015C38.2735 42.0015 37.4485 41.3722 37.138 40.5015H41.3612C41.0515 41.3722 40.2265 42.0015 39.25 42.0015ZM40.3105 39.0015L41.899 37.413C42.5403 36.7717 43.069 36.0487 43.4808 35.2695C44.818 36.084 45.724 37.4527 45.9468 39.0015H40.3105Z" fill="#B79C10"/>
<path d="M11.25 36.75H12.75V38.25H11.25V36.75Z" fill="#B79C10"/>
<path d="M5.25 36.75H6.75V38.25H5.25V36.75Z" fill="#B79C10"/>
<path d="M8.25 36.75H9.75V38.25H8.25V36.75Z" fill="#B79C10"/>
</g>
<defs>
<clipPath id="clip0_2:666">
<rect width="48" height="48" fill="white"/>
</clipPath>
</defs>
</svg>
